<?xml version="1.0" encoding="utf-8"?>
<!-- Generator: Adobe Illustrator 23.1.1, SVG Export Plug-In . SVG Version: 6.00 Build 0)  -->
<svg version="1.1" id="BitTube" xmlns="http://www.w3.org/2000/svg" xmlns:xlink="http://www.w3.org/1999/xlink" x="0px" y="0px"
	 viewBox="0 0 300 300" style="enable-background:new 0 0 300 300;" xml:space="preserve">
<style type="text/css">
	.st0{fill:url(#SVGID_1_);}
	.st1{opacity:0.71;fill:url(#tex11_1_);enable-background:new    ;}
	.st2{opacity:0.71;fill:url(#tex10_1_);enable-background:new    ;}
	.st3{opacity:0.71;fill:url(#tex09_1_);enable-background:new    ;}
	.st4{opacity:0.71;fill:url(#tex08_1_);enable-background:new    ;}
	.st5{opacity:0.71;fill:url(#tex07_1_);enable-background:new    ;}
	.st6{opacity:0.71;fill:url(#tex06_1_);enable-background:new    ;}
	.st7{opacity:0.71;fill:url(#tex05_1_);enable-background:new    ;}
	.st8{opacity:0.71;fill:url(#tex04_1_);enable-background:new    ;}
	.st9{opacity:0.71;fill:url(#tex03_1_);enable-background:new    ;}
	.st10{opacity:0.71;fill:url(#tex02_1_);enable-background:new    ;}
	.st11{opacity:0.71;fill:url(#tex01_1_);enable-background:new    ;}
	.st12{filter:url(#Adobe_OpacityMaskFilter);}
	.st13{fill:url(#SVGID_2_);}
	.st14{mask:url(#big-lines_1_);}
	.st15{fill:url(#bigline17_1_);}
	.st16{fill:url(#bigline16_1_);}
	.st17{fill:url(#bigline15_1_);}
	.st18{fill:url(#bigline14_2_);}
	.st19{fill:url(#bigline12_1_);}
	.st20{fill:url(#bigline11_2_);}
	.st21{fill:url(#bigline10_1_);}
	.st22{fill:url(#bigline09_1_);}
	.st23{fill:url(#bigline08_1_);}
	.st24{fill:url(#bigline07_1_);}
	.st25{fill:url(#bigline06_1_);}
	.st26{fill:url(#bigline03_1_);}
	.st27{fill:url(#bigline02_1_);}
	.st28{fill:url(#bigline01_1_);}
	.st29{fill:url(#bigline05_1_);}
	.st30{opacity:0.6;fill:#FFFFFF;}
	.st31{fill:#FFFFFF;}
</style>
<g>
	<linearGradient id="SVGID_1_" gradientUnits="userSpaceOnUse" x1="249.7685" y1="42.503" x2="47.3097" y2="260.6453">
		<stop  offset="0" style="stop-color:#28D1BC"/>
		<stop  offset="0.6007" style="stop-color:#00ABFF"/>
		<stop  offset="1" style="stop-color:#2A5ED6"/>
	</linearGradient>
	<path class="st0" d="M256.066,43.934C227.731,15.603,190.063,0,150,0C109.933,0,72.265,15.603,43.934,43.934S0,109.933,0,150
		c0,40.07,15.603,77.738,43.934,106.066C72.262,284.397,109.929,300,150,300c40.07,0,77.738-15.603,106.066-43.934
		C284.397,227.735,300,190.067,300,150C300,109.937,284.397,72.269,256.066,43.934z"/>
</g>
<g id="backtexture">
	<linearGradient id="tex11_1_" gradientUnits="userSpaceOnUse" x1="-12.3295" y1="-117.4837" x2="72.8814" y2="117.6718">
		<stop  offset="0.5749" style="stop-color:#FFFFFF"/>
		<stop  offset="1" style="stop-color:#FFFFFF;stop-opacity:0"/>
	</linearGradient>
	<path id="tex11" class="st1" d="M9.454,97.392L39.9,139.479L90.718,12.135c-17.249,7.421-33.106,18.122-46.784,31.799
		C28.511,59.358,16.869,77.553,9.454,97.392z"/>
	
		<linearGradient id="tex10_1_" gradientUnits="userSpaceOnUse" x1="-7.9649" y1="-197.7439" x2="79.5114" y2="-260.4882" gradientTransform="matrix(1 0 0 -1 0 -97.4898)">
		<stop  offset="0" style="stop-color:#FFFFFF"/>
		<stop  offset="1" style="stop-color:#FFFFFF;stop-opacity:0"/>
	</linearGradient>
	<path id="tex10" class="st2" d="M6.9,104.679c-4.5,14.4-6.9,29.4-6.9,45c0,8.4,0.6,16.5,2.1,24.6l23.4,30l110.633-80.689
		L6.9,104.679z"/>
	
		<linearGradient id="tex09_1_" gradientUnits="userSpaceOnUse" x1="254.382" y1="-99.4556" x2="188.4447" y2="-141.7943" gradientTransform="matrix(1 0 0 -1 0 -97.4898)">
		<stop  offset="0" style="stop-color:#FFFFFF"/>
		<stop  offset="1" style="stop-color:#FFFFFF;stop-opacity:0"/>
	</linearGradient>
	<path id="tex09" class="st3" d="M122.4,17.679l82.8,84.9l26.7-78.6c-17.4-11.4-36.9-18.9-57.6-22.2L122.4,17.679z"/>
	
		<linearGradient id="tex08_1_" gradientUnits="userSpaceOnUse" x1="179.816" y1="825.7245" x2="135.0389" y2="868.2402" gradientTransform="matrix(1 0 0 1 0 -742)">
		<stop  offset="0" style="stop-color:#FFFFFF"/>
		<stop  offset="1" style="stop-color:#FFFFFF;stop-opacity:0"/>
	</linearGradient>
	<polygon id="tex08" class="st4" points="128.37,139.04 205.77,140.84 122.97,55.94 	"/>
	<linearGradient id="tex07_1_" gradientUnits="userSpaceOnUse" x1="321.6711" y1="244.9276" x2="239.1025" y2="101.1481">
		<stop  offset="0" style="stop-color:#FFFFFF"/>
		<stop  offset="1" style="stop-color:#FFFFFF;stop-opacity:0"/>
	</linearGradient>
	<path id="tex07" class="st5" d="M290.641,202.353C296.784,185.824,300,168.161,300,150c0-0.605-0.015-1.207-0.022-1.811
		l-93.561-44.993L290.641,202.353z"/>
	
		<linearGradient id="tex06_1_" gradientUnits="userSpaceOnUse" x1="83.4" y1="793.4289" x2="146.5824" y2="793.4289" gradientTransform="matrix(1 0 0 1 0 -742)">
		<stop  offset="0" style="stop-color:#FFFFFF"/>
		<stop  offset="1" style="stop-color:#FFFFFF;stop-opacity:0"/>
	</linearGradient>
	<polygon id="tex06" class="st6" points="83.4,47.679 135.6,83.079 146.7,19.779 	"/>
	<linearGradient id="tex05_1_" gradientUnits="userSpaceOnUse" x1="305.4673" y1="136.2218" x2="280.6179" y2="140.2536">
		<stop  offset="0" style="stop-color:#FFFFFF"/>
		<stop  offset="1" style="stop-color:#FFFFFF;stop-opacity:0"/>
	</linearGradient>
	<path id="tex05" class="st7" d="M293.928,107.545l-15.935-3.766l11.1,72l9.988-9.132C299.684,161.157,300,155.603,300,150
		C300,135.419,297.923,121.158,293.928,107.545z"/>
	<linearGradient id="tex04_1_" gradientUnits="userSpaceOnUse" x1="245.4971" y1="308.5182" x2="231.3383" y2="239.2973">
		<stop  offset="0" style="stop-color:#FFFFFF"/>
		<stop  offset="1" style="stop-color:#FFFFFF;stop-opacity:0"/>
	</linearGradient>
	<path id="tex04" class="st8" d="M218.993,256.341l8.225,22.325c8.609-5.188,16.738-11.283,24.277-18.225L218.993,256.341z"/>
	<linearGradient id="tex03_1_" gradientUnits="userSpaceOnUse" x1="369.3271" y1="234.7757" x2="196.4834" y2="238.0784">
		<stop  offset="0" style="stop-color:#FFFFFF"/>
		<stop  offset="1" style="stop-color:#FFFFFF;stop-opacity:0"/>
	</linearGradient>
	<path id="tex03" class="st9" d="M262.306,249.428c7.047-7.939,13.179-16.5,18.323-25.565l-85.071,8.327L262.306,249.428z"/>
	
		<linearGradient id="tex02_1_" gradientUnits="userSpaceOnUse" x1="175.3095" y1="919.5651" x2="114.6141" y2="1010.2749" gradientTransform="matrix(1 0 0 1 0 -742)">
		<stop  offset="0" style="stop-color:#FFFFFF"/>
		<stop  offset="1" style="stop-color:#FFFFFF;stop-opacity:0"/>
	</linearGradient>
	<path id="tex02" class="st10" d="M218.7,255.579l-168.9-33.3l21.6,55.2c4.8,3,9.9,5.7,15.3,8.1L218.7,255.579z"/>
	
		<linearGradient id="tex01_1_" gradientUnits="userSpaceOnUse" x1="-924.1836" y1="-4050.488" x2="-860.9681" y2="-4050.488" gradientTransform="matrix(-0.7827 0.6224 -0.6224 -0.7827 -3009.668 -2421.344)">
		<stop  offset="0" style="stop-color:#FFFFFF"/>
		<stop  offset="1" style="stop-color:#FFFFFF;stop-opacity:0"/>
	</linearGradient>
	<polygon id="tex01" class="st11" points="237.27,176.69 174.27,181.19 205.17,237.89 	"/>
</g>
<defs>
	<filter id="Adobe_OpacityMaskFilter" filterUnits="userSpaceOnUse" x="18.912" y="51.267" width="254.7" height="189.6">
		<feFlood  style="flood-color:white;flood-opacity:1" result="back"/>
		<feBlend  in="SourceGraphic" in2="back" mode="normal"/>
	</filter>
</defs>
<mask maskUnits="userSpaceOnUse" x="18.912" y="51.267" width="254.7" height="189.6" id="big-lines_1_">
	<g class="st12">
		<radialGradient id="SVGID_2_" cx="150" cy="150" r="150" gradientUnits="userSpaceOnUse">
			<stop  offset="0.0017" style="stop-color:#000000"/>
			<stop  offset="0.088" style="stop-color:#0B0B0B;stop-opacity:0.9135"/>
			<stop  offset="0.2409" style="stop-color:#292929;stop-opacity:0.7604"/>
			<stop  offset="0.4423" style="stop-color:#5A5A5A;stop-opacity:0.5587"/>
			<stop  offset="0.6847" style="stop-color:#9D9D9D;stop-opacity:0.3158"/>
			<stop  offset="0.9591" style="stop-color:#F2F2F2;stop-opacity:0.041"/>
			<stop  offset="1" style="stop-color:#FFFFFF;stop-opacity:0"/>
		</radialGradient>
		<circle class="st13" cx="150" cy="150" r="150"/>
	</g>
</mask>
<g id="big-lines" class="st14">
	
		<linearGradient id="bigline17_1_" gradientUnits="userSpaceOnUse" x1="86.3425" y1="-208.007" x2="152.3908" y2="-208.007" gradientTransform="matrix(1 0 0 -1 0 -97.4898)">
		<stop  offset="0" style="stop-color:#FFFFFF"/>
		<stop  offset="1" style="stop-color:#FFFFFF;stop-opacity:0"/>
	</linearGradient>
	<path id="bigline17" class="st15" d="M93.912,67.767v2.1c0,0.3,0,0.3-0.3,0.6l-5.7,2.4c0,0,0,0-0.3,0s0,0-0.3,0l-1.2-0.6l59.1,81
		l7.2-5.1L93.912,67.767z"/>
	
		<linearGradient id="bigline16_1_" gradientUnits="userSpaceOnUse" x1="202.7952" y1="-202.307" x2="145.0496" y2="-202.307" gradientTransform="matrix(1 0 0 -1 0 -97.4898)">
		<stop  offset="0" style="stop-color:#FFFFFF"/>
		<stop  offset="1" style="stop-color:#FFFFFF;stop-opacity:0"/>
	</linearGradient>
	<path id="bigline16" class="st16" d="M196.226,60.015l-0.014-3.348l-51,92.1l7.5,4.2l50.165-90.078L196.226,60.015z"/>
	
		<linearGradient id="bigline15_1_" gradientUnits="userSpaceOnUse" x1="244.8118" y1="-199.907" x2="144.9118" y2="-199.907" gradientTransform="matrix(1 0 0 -1 0 -97.4898)">
		<stop  offset="0" style="stop-color:#FFFFFF"/>
		<stop  offset="1" style="stop-color:#FFFFFF;stop-opacity:0"/>
	</linearGradient>
	<path id="bigline15" class="st17" d="M238.874,55.031l-0.063-3.763l-93.9,96.3l6.3,6l93.6-96L238.874,55.031z"/>
	
		<linearGradient id="bigline14_2_" gradientUnits="userSpaceOnUse" x1="273.6118" y1="-224.657" x2="146.4616" y2="-224.657" gradientTransform="matrix(1 0 0 -1 0 -97.4898)">
		<stop  offset="0" style="stop-color:#FFFFFF"/>
		<stop  offset="1" style="stop-color:#FFFFFF;stop-opacity:0"/>
	</linearGradient>
	<path id="bigline14_1_" class="st18" d="M270.312,106.167c-0.3,0-0.3-0.3-0.3-0.6v-6l-123.3,47.1l3,8.1l123.9-47.4L270.312,106.167
		z"/>
	
		<linearGradient id="bigline12_1_" gradientUnits="userSpaceOnUse" x1="31.2892" y1="-216.557" x2="150.9892" y2="-216.557" gradientTransform="matrix(1 0 0 -1 0 -97.4898)">
		<stop  offset="0" style="stop-color:#FFFFFF"/>
		<stop  offset="1" style="stop-color:#FFFFFF;stop-opacity:0"/>
	</linearGradient>
	<path id="bigline12" class="st19" d="M35.412,83.967v5.4c0,0.3-0.3,0.6-0.3,0.6l-3.6,1.5l115.5,62.7l4.2-7.8L35.412,83.967z"/>
	
		<linearGradient id="bigline11_2_" gradientUnits="userSpaceOnUse" x1="51.6635" y1="-250.157" x2="148.981" y2="-250.157" gradientTransform="matrix(1 0 0 -1 0 -97.4898)">
		<stop  offset="0" style="stop-color:#FFFFFF"/>
		<stop  offset="1" style="stop-color:#FFFFFF;stop-opacity:0"/>
	</linearGradient>
	<path id="bigline11_1_" class="st20" d="M51.794,150.267c0.3,0,0.3,0.6,0.3,0.6v7.5c0,0.3-0.3,0.6-0.3,0.6l97.317-3.9l-0.3-8.7
		L51.794,150.267z"/>
	
		<linearGradient id="bigline10_1_" gradientUnits="userSpaceOnUse" x1="18.9118" y1="-264.857" x2="150.0118" y2="-264.857" gradientTransform="matrix(1 0 0 -1 0 -97.4898)">
		<stop  offset="0" style="stop-color:#FFFFFF"/>
		<stop  offset="1" style="stop-color:#FFFFFF;stop-opacity:0"/>
	</linearGradient>
	<path id="bigline10_2_" class="st21" d="M23.004,182.026c0.108,0.042,0.701,0.167,0.708,0.642l0,0l0,0v5.7l126.3-33.6l-2.7-8.4
		l-128.4,34.2C18.912,180.567,22.896,181.984,23.004,182.026z"/>
	
		<linearGradient id="bigline09_1_" gradientUnits="userSpaceOnUse" x1="97.7129" y1="-268.382" x2="151.7553" y2="-268.382" gradientTransform="matrix(1 0 0 -1 0 -97.4898)">
		<stop  offset="0" style="stop-color:#FFFFFF"/>
		<stop  offset="1" style="stop-color:#FFFFFF;stop-opacity:0"/>
	</linearGradient>
	<path id="bigline09" class="st22" d="M101.712,186.442v5.825l50.1-35.85l-5.4-6.9l-48.579,34.702L101.712,186.442z"/>
	
		<linearGradient id="bigline08_1_" gradientUnits="userSpaceOnUse" x1="101.6005" y1="-228.257" x2="151.1005" y2="-228.257" gradientTransform="matrix(1 0 0 -1 0 -97.4898)">
		<stop  offset="0" style="stop-color:#FFFFFF"/>
		<stop  offset="1" style="stop-color:#FFFFFF;stop-opacity:0"/>
	</linearGradient>
	<path id="bigline08" class="st23" d="M107.412,107.367v3.6c0,0.3-0.3,0.6-0.3,0.6l-5.4,2.4l43.5,40.2l6-6.3L107.412,107.367z"/>
	
		<linearGradient id="bigline07_1_" gradientUnits="userSpaceOnUse" x1="169.6765" y1="-221.957" x2="144.6958" y2="-221.957" gradientTransform="matrix(1 0 0 -1 0 -97.4898)">
		<stop  offset="0" style="stop-color:#FFFFFF"/>
		<stop  offset="1" style="stop-color:#FFFFFF;stop-opacity:0"/>
	</linearGradient>
	<path id="bigline07" class="st24" d="M167.412,99.267C167.412,99.267,167.112,99.267,167.412,99.267c-0.3,0-0.3,0-0.6,0l-5.7-2.4
		l0,0l-16.2,52.5l8.4,2.7l16.5-53.7L167.412,99.267z"/>
	
		<linearGradient id="bigline06_1_" gradientUnits="userSpaceOnUse" x1="196.2967" y1="-242.957" x2="152.8537" y2="-242.957" gradientTransform="matrix(1 0 0 -1 0 -97.4898)">
		<stop  offset="0" style="stop-color:#FFFFFF"/>
		<stop  offset="1" style="stop-color:#FFFFFF;stop-opacity:0"/>
	</linearGradient>
	<path id="bigline06" class="st25" d="M194.412,136.467l-41.4,9.6l2.1,8.4l41.4-9.6L194.412,136.467z"/>
	
		<linearGradient id="bigline03_1_" gradientUnits="userSpaceOnUse" x1="252.0118" y1="-291.557" x2="145.2118" y2="-291.557" gradientTransform="matrix(1 0 0 -1 0 -97.4898)">
		<stop  offset="0" style="stop-color:#FFFFFF"/>
		<stop  offset="1" style="stop-color:#FFFFFF;stop-opacity:0"/>
	</linearGradient>
	<path id="bigline03" class="st26" d="M245.712,237.267L245.712,237.267L245.712,237.267L245.712,237.267l6-1.8c0,0,0,0,0.3,0
		l-101.1-88.2l-5.7,6.6l99.9,87v-3C245.112,237.867,245.081,237.423,245.712,237.267z"/>
	
		<linearGradient id="bigline02_1_" gradientUnits="userSpaceOnUse" x1="171.9664" y1="-291.407" x2="144.4132" y2="-291.407" gradientTransform="matrix(1 0 0 -1 0 -97.4898)">
		<stop  offset="0" style="stop-color:#FFFFFF"/>
		<stop  offset="1" style="stop-color:#FFFFFF;stop-opacity:0"/>
	</linearGradient>
	<path id="bigline02" class="st27" d="M163.212,239.067l6-1.8h0.3l2.1,0.6l-18.6-89.1l-8.4,1.8L163.212,239.067L163.212,239.067z"/>
	
		<linearGradient id="bigline01_1_" gradientUnits="userSpaceOnUse" x1="239.3194" y1="-242.207" x2="147.5194" y2="-242.207" gradientTransform="matrix(1 0 0 -1 0 -97.4898)">
		<stop  offset="0" style="stop-color:#FFFFFF"/>
		<stop  offset="1" style="stop-color:#FFFFFF;stop-opacity:0"/>
	</linearGradient>
	<path id="bigline01_2_" class="st28" d="M194.412,140.067l-46.8,6.3l1.2,8.7l90.6-12.3l-1.2-0.3c-0.3,0-0.3-0.3-0.3-0.6v-7.5l0,0
		l0,0l0,0L194.412,140.067"/>
	
		<linearGradient id="bigline05_1_" gradientUnits="userSpaceOnUse" x1="226.3578" y1="914.1499" x2="147.6532" y2="914.1499" gradientTransform="matrix(1 0 0 1 0 -742)">
		<stop  offset="0" style="stop-color:#FFFFFF"/>
		<stop  offset="1" style="stop-color:#FFFFFF;stop-opacity:0"/>
	</linearGradient>
	<path id="bigline05" class="st29" d="M222.322,190.608L222.322,190.608L222.322,190.608c0-0.293,0-0.293,0.293-0.586l0,0l0,0l0,0
		l3.516-1.172l-74.417-41.017l-4.102,7.324l74.71,41.31C222.322,196.467,222.322,190.608,222.322,190.608z"/>
</g>
<path id="lines" class="st30" d="M50.105,72.427h0.007c0.085,0,0.155-0.067,0.159-0.152l1.497-35.638
	c-0.111,0.096-0.22,0.196-0.33,0.292l-1.485,35.332C49.949,72.348,50.017,72.423,50.105,72.427z M57.612,74.526
	c0.018,0,0.035-0.003,0.053-0.009l24-8.399c0.083-0.029,0.126-0.12,0.097-0.203s-0.121-0.127-0.203-0.098l-24,8.399
	c-0.083,0.029-0.126,0.12-0.097,0.203C57.485,74.485,57.546,74.526,57.612,74.526z M46.505,148.326h0.007
	c0.085,0,0.155-0.067,0.159-0.152l2.7-64.199c0.004-0.088-0.064-0.162-0.152-0.166h-0.007c-0.085,0-0.155,0.067-0.159,0.152
	l-2.7,64.199C46.349,148.248,46.418,148.322,46.505,148.326z M160.811,89.226c0.066,0,0.128-0.041,0.15-0.107
	c0.028-0.083-0.016-0.174-0.099-0.202l-66.899-23.1c-0.084-0.03-0.173,0.015-0.202,0.099c-0.028,0.083,0.016,0.174,0.099,0.202
	l66.899,23.1C160.776,89.223,160.794,89.226,160.811,89.226z M248.723,44.913c0.057,0,0.112-0.031,0.141-0.085l2.717-5.187
	c-0.081-0.074-0.161-0.15-0.241-0.224l-2.757,5.262c-0.041,0.078-0.011,0.175,0.066,0.215
	C248.674,44.907,248.698,44.913,248.723,44.913z M83.567,71.002l-35.1,78c-0.036,0.08,0,0.175,0.08,0.21
	c0.021,0.01,0.043,0.015,0.065,0.015c0.061,0,0.119-0.035,0.145-0.094l35.1-78c0.036-0.08,0-0.175-0.08-0.21
	C83.696,70.886,83.602,70.922,83.567,71.002z M85.386,60.964c0.031,0.041,0.079,0.062,0.126,0.062c0.034,0,0.068-0.011,0.097-0.033
	c0.07-0.053,0.083-0.152,0.03-0.223L61.341,28.975c-0.085,0.063-0.172,0.123-0.257,0.186c0.001,0.001,0,0.002,0.001,0.003
	L85.386,60.964z M207.006,138.708c-0.088,0.004-0.156,0.078-0.153,0.165c0.004,0.086,0.074,0.153,0.159,0.153h0.006l30.37-1.2
	c0.088-0.004,0.156-0.078,0.153-0.165c-0.004-0.088-0.072-0.162-0.165-0.153L207.006,138.708z M222.592,51.222
	c-4.592,0.477-9.341,0.969-13.795,1.387c-0.088,0.008-0.151,0.086-0.144,0.173c0.008,0.083,0.077,0.145,0.158,0.145
	c0.005,0,0.01,0,0.015-0.001c4.456-0.418,9.206-0.91,13.799-1.388c5.356-0.556,10.896-1.13,16.201-1.612
	c0.087-0.008,0.151-0.085,0.144-0.173c-0.009-0.087-0.09-0.159-0.173-0.144C233.49,50.092,227.95,50.666,222.592,51.222z
	 M280.758,97.016c0.018,0.007,0.036,0.01,0.054,0.01c0.065,0,0.127-0.041,0.149-0.105l4.278-11.966
	c-0.064-0.133-0.13-0.266-0.195-0.399l-4.382,12.257C280.632,96.896,280.676,96.987,280.758,97.016z M124.355,29.995
	c0.001,0.008,0.011,0.011,0.014,0.018c0.011,0.034,0.031,0.06,0.061,0.08c0.007,0.005,0.007,0.016,0.015,0.019L231.879,79.85
	l-28.009,54.744c-0.04,0.078-0.009,0.174,0.069,0.214c0.023,0.012,0.048,0.018,0.072,0.018c0.058,0,0.113-0.032,0.142-0.087
	l28.015-54.755l18.679,8.648l-3.174,27.728l-40.731,19.965c-0.078,0.038-0.111,0.134-0.072,0.213
	c0.027,0.056,0.084,0.089,0.143,0.089c0.023,0,0.048-0.005,0.07-0.017l40.548-19.875l-1.776,15.514
	c-0.01,0.088,0.053,0.167,0.14,0.177c0.007,0,0.013,0.001,0.019,0.001c0.08,0,0.148-0.06,0.158-0.141l1.799-15.718l21.605-10.59
	c0.078-0.038,0.111-0.134,0.072-0.213c-0.038-0.078-0.134-0.11-0.213-0.072l-21.421,10.5l3.139-27.421l19.094,8.84
	c0.021,0.01,0.044,0.015,0.066,0.015c0.06,0,0.117-0.034,0.145-0.093c0.037-0.079,0.002-0.174-0.078-0.211l-19.188-8.883
	l2.138-18.671l20.559,4.728l1.212,20.258c0.006,0.084,0.075,0.149,0.159,0.149h0.01c0.087-0.006,0.154-0.081,0.149-0.169
	l-1.206-20.164l6.358,1.462c-0.072-0.127-0.148-0.251-0.22-0.378l-6.157-1.416l-0.552-9.225c-0.117-0.17-0.232-0.34-0.35-0.51
	l0.578,9.66l-20.502-4.715l2.898-25.315c-0.066-0.066-0.13-0.134-0.196-0.201c-0.03-0.03-0.061-0.059-0.092-0.09l-2.923,25.534
	l-13.829-3.181l4.532-8.858c0.04-0.078,0.009-0.174-0.069-0.214c-0.078-0.039-0.174-0.009-0.214,0.069l-4.568,8.929l-30.056-6.912
	c-0.082-0.016-0.17,0.034-0.19,0.12c-0.02,0.085,0.034,0.171,0.12,0.19l29.976,6.894l-6.728,13.15L126.621,30.769l69.545,20.95
	c0.016,0.005,0.031,0.007,0.046,0.007c0.068,0,0.132-0.045,0.152-0.113c0.025-0.084-0.022-0.173-0.106-0.198l-70.667-21.288h73.78
	l2.383,19.66c0.01,0.086,0.074,0.137,0.178,0.139c0.087-0.011,0.148-0.09,0.139-0.178l-2.379-19.621h25.645l-11.537,11.729
	c-0.062,0.062-0.061,0.163,0.002,0.225c0.031,0.03,0.071,0.046,0.111,0.046c0.041,0,0.082-0.016,0.113-0.048l11.756-11.952h14.415
	c-0.14-0.106-0.278-0.213-0.418-0.318h-13.684l5.577-5.669c-0.091-0.059-0.181-0.118-0.272-0.177l-5.75,5.846h-26l-3.215-22.511
	c-0.112-0.036-0.224-0.07-0.336-0.106l3.23,22.617h-74.43l30.017-29.72c-0.146-0.005-0.291-0.012-0.437-0.016L124.4,29.854
	c-0.004,0.004-0.001,0.012-0.005,0.016c-0.018,0.022-0.036,0.044-0.04,0.073c-0.002,0.011,0.006,0.021,0.007,0.032
	C124.362,29.983,124.354,29.988,124.355,29.995z M239.072,66.49l13.943,3.207l-2.13,18.602L232.313,79.7L239.072,66.49z
	 M162.311,88.026c0.044,0,0.088-0.019,0.119-0.054c0.059-0.066,0.052-0.167-0.014-0.225L81.495,16.484
	c-0.101,0.052-0.202,0.105-0.302,0.157l81.013,71.345C162.236,88.012,162.274,88.026,162.311,88.026z M107.412,104.226
	c0.011,0,0.021-0.001,0.032-0.004l53.399-11.1c0.086-0.018,0.142-0.102,0.123-0.188c-0.018-0.087-0.103-0.146-0.188-0.123
	l-53.399,11.1c-0.086,0.018-0.141,0.102-0.124,0.188C107.272,104.175,107.338,104.226,107.412,104.226z M42.719,160.284
	c0.065-0.06,0.069-0.16,0.01-0.225c-0.062-0.064-0.162-0.07-0.225-0.01c-3.744,3.445-7.475,6.947-11.082,10.334
	c-3.62,3.397-7.362,6.911-11.118,10.366c-0.065,0.06-0.069,0.16-0.01,0.225c0.032,0.034,0.074,0.052,0.117,0.052
	c0.039,0,0.077-0.014,0.107-0.042c3.757-3.456,7.5-6.971,11.12-10.369C35.246,167.229,38.976,163.727,42.719,160.284z
	 M93.108,196.341c-0.072-0.053-0.171-0.038-0.223,0.031l-46.57,62.018c0.077,0.074,0.152,0.15,0.229,0.224l46.594-62.051
	C93.192,196.493,93.178,196.393,93.108,196.341z M252.931,247.609c-0.103,0-0.167,0.053-0.177,0.14l-1.502,12.917
	c0.12-0.111,0.239-0.223,0.36-0.334l1.459-12.546C253.08,247.698,253.017,247.62,252.931,247.609z M162.818,239.796
	c0.071,0.051,0.171,0.036,0.223-0.035s0.036-0.171-0.035-0.223l-33.732-24.615l83.56-55.484l16.237,28.592
	c0.003,0.005,0.009,0.003,0.012,0.007c0.019,0.028,0.043,0.055,0.078,0.066c0.016,0.005,0.032,0.008,0.049,0.008
	c0.026,0,0.054-0.007,0.078-0.021c0.003-0.001,0.003-0.005,0.005-0.006c0.031-0.019,0.056-0.046,0.068-0.083l14.102-43.387
	c0.027-0.083-0.019-0.173-0.103-0.2c-0.08-0.025-0.172,0.019-0.2,0.103l-13.99,43.043l-16.07-28.298l24.814-16.476
	c0.073-0.049,0.093-0.147,0.045-0.221c-0.05-0.072-0.146-0.092-0.221-0.045l-24.796,16.464l-7.892-13.897
	c-0.043-0.075-0.141-0.103-0.217-0.061c-0.077,0.044-0.104,0.141-0.061,0.217l7.903,13.917L129,214.723l-10.227-7.463l76.64-62.57
	c0.068-0.056,0.078-0.155,0.022-0.224c-0.055-0.067-0.156-0.079-0.224-0.022l-76.704,62.622l-17.001-12.527
	c-0.071-0.052-0.17-0.036-0.222,0.033c-0.052,0.071-0.037,0.171,0.034,0.223l16.935,12.479l-67.351,55.324
	c0.081,0.071,0.161,0.143,0.242,0.214l67.375-55.343l10.199,7.443L53.51,264.848c0.085,0.071,0.169,0.143,0.254,0.214l75.227-49.951
	L162.818,239.796z M163.067,245.934c-0.018-0.085-0.099-0.145-0.188-0.122L57.549,268.145c0.107,0.084,0.213,0.173,0.32,0.257
	l105.075-22.279C163.031,246.105,163.086,246.02,163.067,245.934z M286.96,150.937l12.941,4.261
	c0.004-0.111,0.009-0.221,0.012-0.332l-12.655-4.167l12.455-9.894c-0.008-0.129-0.016-0.257-0.024-0.386l-12.792,10.161
	l-10.305-3.393l0.577-16.431l20.716-6.032c-0.018-0.105-0.033-0.211-0.051-0.316l-20.654,6.014l0.789-22.45
	c0.003-0.088-0.065-0.162-0.153-0.165c-0.086-0.014-0.162,0.065-0.165,0.153l-0.792,22.556l-26.094,7.598
	c-0.084,0.024-0.132,0.112-0.107,0.197c0.02,0.069,0.083,0.114,0.152,0.114c0.015,0,0.029-0.002,0.045-0.007l25.992-7.568
	l-0.57,16.233l-25.417-8.369c-0.083-0.024-0.173,0.019-0.201,0.102c-0.027,0.083,0.019,0.174,0.102,0.201l25.505,8.398l-0.42,11.945
	l-40.134,31.882c-0.069,0.054-0.08,0.154-0.025,0.223c0.031,0.04,0.077,0.061,0.124,0.061c0.035,0,0.069-0.012,0.099-0.035
	l39.922-31.714l-1.112,31.654l-9.815,10.711l-29.057-6.731c-0.09-0.015-0.171,0.034-0.191,0.119
	c-0.02,0.086,0.034,0.171,0.119,0.191l28.882,6.69l-10.904,11.899l-11.017,6.02l-10.082-20.335c-0.04-0.079-0.134-0.11-0.213-0.072
	c-0.079,0.039-0.111,0.135-0.072,0.213l10.088,20.347l-34.053,18.607l13.439-36.365l3.566-2.836c0.069-0.055,0.08-0.154,0.025-0.223
	c-0.055-0.07-0.154-0.08-0.223-0.025l-3.157,2.51l1.305-3.532c0.03-0.082-0.012-0.174-0.095-0.204
	c-0.078-0.029-0.173,0.012-0.204,0.095l-1.487,4.023l-46.163,36.707c-0.069,0.055-0.08,0.154-0.025,0.223
	c0.031,0.04,0.077,0.061,0.124,0.061c0.035,0,0.069-0.012,0.099-0.035l45.753-36.382l-13.384,36.216l-78.112,42.683l-6.754-0.756
	l41.397-32.76c0.069-0.055,0.08-0.155,0.026-0.224s-0.153-0.079-0.224-0.026l-41.7,33c-0.051,0.04-0.072,0.106-0.054,0.169
	c0.014,0.049,0.061,0.073,0.107,0.091l-55.014-6.079c0.197,0.13,0.395,0.257,0.592,0.386l54.063,5.973l-7.93,6.22l-38.732-8.291
	c-0.086-0.021-0.17,0.036-0.188,0.122c-0.019,0.086,0.036,0.17,0.122,0.188l38.473,8.235l-6.737,5.284
	c-0.069,0.054-0.081,0.154-0.027,0.223c0.031,0.04,0.078,0.062,0.125,0.062c0.035,0,0.069-0.012,0.098-0.034l6.946-5.448
	l2.742,0.587l-8.962,4.897c-0.077,0.042-0.105,0.139-0.063,0.216c0.029,0.053,0.083,0.083,0.14,0.083
	c0.026,0,0.052-0.007,0.076-0.02l9.286-5.074l47.604,10.19c0.011,0.003,0.022,0.004,0.033,0.004c0.073,0,0.14-0.051,0.155-0.126
	c0.019-0.086-0.036-0.17-0.122-0.188L118.101,288.8l11.83-6.464l59.684,6.681l-2.253,6.096c-0.029,0.078,0.011,0.16,0.085,0.195
	c0.062-0.016,0.123-0.033,0.185-0.049c0.01-0.012,0.023-0.021,0.029-0.037l2.28-6.169l12.825,1.436
	c0.161-0.06,0.322-0.118,0.483-0.179c-0.022-0.051-0.06-0.094-0.119-0.1l-13.075-1.464l18.182-49.199l34.362-18.776l7.471,15.068
	c0.028,0.057,0.084,0.089,0.143,0.089c0.023,0,0.048-0.006,0.07-0.017c0.079-0.039,0.111-0.135,0.072-0.213l-7.477-15.08
	l10.928-5.971l17.247,23.975c0.066-0.09,0.13-0.181,0.196-0.271l-17.192-23.899l10.956-11.956l9.243,2.141l-1.09,31.038
	c0.113-0.162,0.223-0.326,0.336-0.489l1.07-30.475l13.875,3.214c0.042-0.1,0.086-0.198,0.128-0.298l-13.991-3.241l0.451-12.826
	l24.214-26.424c0.017-0.175,0.034-0.351,0.051-0.526l-24.247,26.46l1.108-31.553L286.96,150.937z M276.581,147.52l10.018,3.299
	l-10.425,8.282L276.581,147.52z M117.625,288.698l-2.843-0.609l8.029-6.297c0.051-0.04,0.072-0.106,0.055-0.169
	c-0.011-0.038-0.038-0.066-0.071-0.086l6.587,0.737L117.625,288.698z M189.729,288.709l-59.311-6.639l77.394-42.291L189.729,288.709
	z M274.268,204.312l-9.007-2.086l9.443-10.304L274.268,204.312z M255.841,246.425c-0.078,0.04-0.11,0.135-0.071,0.214l3.212,6.424
	c0.078-0.083,0.154-0.167,0.232-0.249l-3.159-6.318C256.014,246.417,255.919,246.387,255.841,246.425z M29.958,79.617
	c0.018,0.007,0.036,0.01,0.054,0.01c0.065,0,0.126-0.04,0.149-0.104l12.403-34.184c-0.18,0.184-0.36,0.367-0.539,0.552
	L29.863,79.413C29.833,79.496,29.875,79.587,29.958,79.617z M10.816,186.108l-6.498-0.157c0.026,0.107,0.049,0.214,0.076,0.32
	l6.414,0.155h0.004c0.086,0,0.157-0.069,0.159-0.155C10.973,186.183,10.904,186.11,10.816,186.108z M20.253,179.054
	c-0.007,0.087,0.058,0.164,0.146,0.171c0.004,0.001,0.008,0.001,0.013,0.001c0.082,0,0.152-0.063,0.159-0.146
	c0.019-0.232,0.773-9.478,1.807-22.299l16.946-1.256c0.087-0.006,0.153-0.082,0.147-0.17c-0.006-0.084-0.076-0.147-0.159-0.147
	c-0.004,0-0.008,0-0.012,0.001l-16.897,1.252c0.308-3.822,0.64-7.951,0.985-12.252l15.856,7.404c0.022,0.01,0.045,0.015,0.067,0.015
	c0.06,0,0.117-0.034,0.144-0.092c0.037-0.08,0.003-0.174-0.077-0.212l-15.963-7.454c0.269-3.357,0.545-6.814,0.823-10.305
	l16.762,16.217c0.031,0.03,0.07,0.045,0.11,0.045c0.042,0,0.083-0.017,0.114-0.049c0.061-0.062,0.06-0.163-0.004-0.225
	l-16.95-16.399c1.183-14.858,2.394-30.269,3.198-41.075c0.006-0.088-0.059-0.164-0.147-0.17c-0.086-0.024-0.164,0.059-0.17,0.146
	c-0.8,10.742-2.001,26.035-3.177,40.812l-15.62-15.112l16.092-26.807c0.045-0.075,0.021-0.173-0.054-0.219
	c-0.077-0.044-0.173-0.021-0.218,0.055L8.122,117.529l-3.765-3.642c-0.029,0.12-0.056,0.24-0.085,0.36l3.682,3.562l-6.429,10.71
	c-0.038,0.265-0.071,0.532-0.108,0.798l6.772-11.281l15.755,15.243c-0.282,3.539-0.562,7.044-0.835,10.448L0.918,133.363
	c-0.012,0.112-0.025,0.223-0.037,0.335l22.201,10.366c-0.35,4.363-0.686,8.549-0.999,12.42l-21.863,1.62
	c0.006,0.106,0.014,0.211,0.019,0.317l21.817-1.617C21.025,169.6,20.272,178.823,20.253,179.054z M194.341,142.625l-91.992,45.899
	c-0.079,0.039-0.111,0.135-0.071,0.214c0.028,0.056,0.084,0.088,0.142,0.088c0.024,0,0.048-0.006,0.071-0.017l91.993-45.899
	c0.078-0.039,0.11-0.135,0.071-0.214C194.514,142.616,194.419,142.588,194.341,142.625z M35.262,82.22
	c0.023,0.065,0.084,0.106,0.15,0.106c0.018,0,0.036-0.003,0.053-0.01l9.3-3.3c0.083-0.029,0.126-0.12,0.097-0.202
	c-0.029-0.083-0.121-0.129-0.203-0.097l-9.3,3.3C35.276,82.047,35.233,82.137,35.262,82.22z M88.805,190.026h0.007
	c0.084,0,0.155-0.066,0.159-0.152c0.004-0.087-0.063-0.162-0.151-0.166l-20.627-0.946l5.413-14.147l15.713,11.481
	c0.028,0.021,0.061,0.031,0.094,0.031c0.049,0,0.097-0.022,0.128-0.065c0.052-0.071,0.036-0.17-0.035-0.222l-15.783-11.532
	l1.188-3.106l43.809-10.914l-18.037,25.286c-0.051,0.072-0.035,0.171,0.037,0.223c0.028,0.02,0.06,0.029,0.092,0.029
	c0.049,0,0.099-0.023,0.129-0.066l18.254-25.59l75.255-18.748c0.086-0.021,0.138-0.107,0.116-0.192
	c-0.021-0.085-0.106-0.135-0.192-0.116l-74.894,18.658l9.759-13.681l65.189-6.464c0.088-0.009,0.151-0.087,0.143-0.174
	c-0.008-0.087-0.086-0.157-0.174-0.143l-64.912,6.436l17.393-24.383l47.486,15.556c0.017,0.005,0.033,0.008,0.05,0.008
	c0.067,0,0.129-0.043,0.151-0.109c0.027-0.084-0.019-0.174-0.102-0.201l-47.391-15.524l16.366-22.943
	c0.051-0.072,0.034-0.171-0.037-0.223c-0.072-0.049-0.171-0.034-0.223,0.037l-16.424,23.025l-38.95-12.759
	c-0.082-0.025-0.172,0.019-0.2,0.102c-0.027,0.084,0.018,0.174,0.102,0.201l38.855,12.728l-17.496,24.528l-46.181,4.579
	l14.478-37.842c0.031-0.082-0.01-0.174-0.092-0.205c-0.082-0.029-0.174,0.009-0.205,0.092l-14.535,37.991l-20.055,1.989
	l4.151-14.388c13.431-12.457,27.933-25.868,28.551-26.29c0.056-0.025,0.095-0.081,0.095-0.146c0-0.088-0.071-0.159-0.159-0.159
	c-0.195,0-9.705,8.733-28.315,25.997l18.868-65.394c0.024-0.084-0.024-0.173-0.109-0.196c-0.085-0.028-0.173,0.024-0.197,0.108
	l-19.014,65.901c-4.222,3.917-8.9,8.262-14.042,13.042c-0.064,0.06-0.068,0.16-0.008,0.225c0.031,0.033,0.074,0.051,0.116,0.051
	c0.039,0,0.078-0.015,0.108-0.043c3.869-3.596,8.676-8.061,13.653-12.678l-4.04,14.002l-9.548,0.947
	c-0.087,0.009-0.151,0.087-0.143,0.174c0.008,0.082,0.077,0.144,0.158,0.144c0.005,0,0.01,0,0.016-0.001l9.422-0.934l-3.102,10.751
	l-6.494-4.745c-0.071-0.054-0.17-0.038-0.222,0.034c-0.052,0.071-0.036,0.17,0.035,0.222l6.588,4.813l-3.435,11.904l-31.493,7.846
	c-0.085,0.021-0.137,0.107-0.116,0.192c0.018,0.072,0.083,0.121,0.154,0.121c0.013,0,0.025-0.002,0.039-0.005l31.314-7.801
	l-3.441,11.927l-27.737-1.272c-0.086,0.006-0.162,0.064-0.166,0.152c-0.004,0.087,0.063,0.162,0.151,0.166l27.661,1.269
	l-16.741,58.021c0.082,0.098,0.164,0.195,0.247,0.293L52.1,188.343l15.638,0.717l-25.12,65.657c0.081,0.083,0.163,0.167,0.244,0.25
	l25.21-65.892L88.805,190.026z M73.456,174.114l-2.602-1.901l3.681-0.917L73.456,174.114z M82.755,150.699l46.062-4.567
	l-9.814,13.758l-43.954,10.95L82.755,150.699z M62.379,152.719l20.023-1.985l-7.728,20.199l-4.154,1.035l-11.31-8.264
	L62.379,152.719z M59.116,164.029l11.003,8.039l-14.354,3.576L59.116,164.029z M52.191,188.028l3.471-12.031l14.791-3.685
	l2.886,2.109l-5.481,14.326L52.191,188.028z M19.236,192.71c-0.089-0.013-0.168,0.047-0.181,0.134l-3.596,23.635
	c0.083,0.167,0.162,0.335,0.245,0.502l3.665-24.09C19.382,192.804,19.323,192.723,19.236,192.71z"/>
<g id="block_1_">
	<path id="block01_2_" class="st31" d="M245.405,46.256l-3.951,1.367l3.981,1.534l3.981-1.534L245.405,46.256z M240.486,54.176
		l4.429,1.764v-5.759l-4.429-1.764V54.176z M246.012,50.115v5.825l4.323-1.751v-5.772L246.012,50.115z"/>
	<path id="block02_1_" class="st31" d="M202.33,51.098l-3.951,1.367l3.981,1.534l3.981-1.534L202.33,51.098z M197.412,59.018
		l4.429,1.764v-5.759l-4.429-1.764V59.018z M202.937,54.958v5.825l4.323-1.751v-5.772L202.937,54.958z"/>
	<path id="block03_1_" class="st31" d="M167.212,87.632l-3.951,1.367l3.981,1.534l3.981-1.534L167.212,87.632z M162.294,95.552
		l4.429,1.764v-5.759l-4.429-1.764V95.552z M167.819,91.492v5.825l4.323-1.751v-5.772L167.819,91.492z"/>
	<path id="block04" class="st31" d="M87.752,61.57l-3.951,1.367l3.981,1.534l3.981-1.534L87.752,61.57z M82.834,69.491l4.429,1.764
		v-5.759l-4.429-1.764V69.491z M88.359,65.43v5.825l4.323-1.751v-5.772L88.359,65.43z"/>
	<path id="block05" class="st31" d="M45.681,149.325l-3.951,1.367l3.981,1.534l3.981-1.534L45.681,149.325z M40.762,157.245
		l4.429,1.764v-5.759l-4.429-1.764V157.245z M46.288,153.185v5.825l4.323-1.751v-5.772L46.288,153.185z"/>
	<path id="block06" class="st31" d="M28.804,80.849l-3.951,1.367l3.981,1.534l3.981-1.534L28.804,80.849z M23.886,88.769
		l4.429,1.764v-5.759l-4.429-1.764V88.769z M29.411,84.709v5.825l4.323-1.751V83.01L29.411,84.709z"/>
	<path id="block07_2_" class="st31" d="M169.288,238.683l-3.951,1.367l3.981,1.534l3.981-1.534L169.288,238.683z M164.37,246.603
		l4.429,1.764v-5.759l-4.429-1.764V246.603z M169.895,242.542v5.825l4.323-1.751v-5.772L169.895,242.542z"/>
	<path id="block08" class="st31" d="M100.806,102.525l-3.951,1.367l3.981,1.534l3.981-1.534L100.806,102.525z M95.888,110.445
		l4.429,1.764v-5.759l-4.429-1.764V110.445z M101.413,106.385v5.825l4.323-1.751v-5.772L101.413,106.385z"/>
	<path id="block09" class="st31" d="M95.387,185.167l-3.951,1.367l3.981,1.534l3.981-1.534L95.387,185.167z M90.468,193.087
		l4.429,1.764v-5.759l-4.429-1.764V193.087z M95.994,189.027v5.825l4.323-1.751v-5.772L95.994,189.027z"/>
	<path id="block10" class="st31" d="M251.88,237.423l-3.951,1.367l3.981,1.534l3.981-1.534L251.88,237.423z M246.962,245.344
		l4.429,1.764v-5.759l-4.429-1.764V245.344z M252.487,241.283v5.825l4.323-1.751v-5.772L252.487,241.283z"/>
	<path id="block11" class="st31" d="M229.18,189.225l-3.951,1.367l3.981,1.534l3.981-1.534L229.18,189.225z M224.262,197.145
		l4.429,1.764v-5.759l-4.429-1.764V197.145z M229.787,193.085v5.825l4.323-1.751v-5.772L229.787,193.085z"/>
	<path id="block12" class="st31" d="M243.606,133.425l-3.951,1.367l3.981,1.534l3.981-1.534L243.606,133.425z M238.688,141.345
		l4.429,1.764v-5.759l-4.429-1.764V141.345z M244.213,137.285v5.825l4.323-1.751v-5.772L244.213,137.285z"/>
	<path id="block13" class="st31" d="M276.887,96.684l-3.951,1.367l3.981,1.534l3.981-1.534L276.887,96.684z M271.968,104.604
		l4.429,1.764v-5.759l-4.429-1.764V104.604z M277.494,100.544v5.825l4.323-1.751v-5.772L277.494,100.544z"/>
	<path id="block14" class="st31" d="M17.419,181.553l-3.951,1.367l3.981,1.534l3.981-1.534L17.419,181.553z M12.501,189.473
		l4.429,1.764v-5.759l-4.429-1.764V189.473z M18.026,185.413v5.825l4.323-1.751v-5.772L18.026,185.413z"/>
</g>
<path id="symbol" class="st31" d="M239.151,61.349c-23.679-23.678-55.161-36.721-88.653-36.721
	c-33.487,0-64.97,13.039-88.656,36.717c-23.678,23.682-36.717,55.165-36.717,88.656c0,33.491,13.039,64.974,36.717,88.656
	c23.686,23.679,55.169,36.717,88.656,36.717c33.488,0,64.971-13.039,88.653-36.717c23.678-23.682,36.72-55.169,36.72-88.656
	C275.872,116.511,262.83,85.028,239.151,61.349z M231.281,230.784c-21.579,21.579-50.269,33.462-80.783,33.462
	c-30.517,0-59.207-11.883-80.782-33.462c-21.579-21.583-33.466-50.269-33.466-80.782c0-30.513,11.887-59.2,33.466-80.783
	c21.575-21.579,50.266-33.462,80.782-33.462c30.513,0,59.204,11.883,80.783,33.462c21.579,21.579,33.462,50.269,33.462,80.783
	C264.743,180.515,252.861,209.205,231.281,230.784z M235.247,104.055c-16.899-31.115-49.373-50.441-84.749-50.441
	c-3.069,0-5.562,2.493-5.562,5.563c0,3.069,2.493,5.566,5.562,5.566c31.29,0,60.017,17.099,74.973,44.623
	c0.973,1.793,2.847,2.909,4.892,2.909c0.922,0,1.84-0.233,2.654-0.678c1.305-0.707,2.256-1.884,2.679-3.31
	C236.118,106.862,235.958,105.356,235.247,104.055z M213.716,142.278l-89.381-54.596c-3.007-1.629-6.557-1.564-9.492,0.193
	c-2.938,1.75-4.692,4.833-4.692,8.253v108.697c0,3.423,1.753,6.51,4.692,8.253c1.494,0.893,3.193,1.363,4.91,1.363
	c1.578,0,3.164-0.405,4.739-1.261l89.188-54.162c3.029-1.699,4.91-4.91,4.91-8.38C218.589,147.177,216.723,143.976,213.716,142.278z
	 M121.28,202.127V98.854l84.774,51.775L121.28,202.127z"/>
</svg>
