<svg xmlns="http://www.w3.org/2000/svg" xmlns:xlink="http://www.w3.org/1999/xlink" width="1081.146" height="626.263" viewBox="0 0 1081.146 626.263"><defs><linearGradient id="a" x1="5.861" y1="-15.585" x2="5.857" y2="-16.045" gradientUnits="objectBoundingBox"><stop offset="0" stop-color="#fff"/><stop offset="0.098" stop-color="#fff" stop-opacity="0.824"/><stop offset="0.232" stop-color="#fff" stop-opacity="0.608"/><stop offset="0.367" stop-color="#fff" stop-opacity="0.424"/><stop offset="0.5" stop-color="#fff" stop-opacity="0.271"/><stop offset="0.631" stop-color="#fff" stop-opacity="0.153"/><stop offset="0.76" stop-color="#fff" stop-opacity="0.067"/><stop offset="0.884" stop-color="#fff" stop-opacity="0.016"/><stop offset="1" stop-color="#fff" stop-opacity="0"/></linearGradient><linearGradient id="b" x1="0.176" y1="0.639" x2="0.821" y2="0.049" xlink:href="#a"/><linearGradient id="c" x1="1.21" y1="0.746" x2="0.52" y2="0.296" xlink:href="#a"/><linearGradient id="d" x1="0.687" y1="0.327" x2="0.146" y2="0.827" xlink:href="#a"/><linearGradient id="e" x1="0.723" y1="0.044" x2="0.413" y2="0.513" xlink:href="#a"/><linearGradient id="f" x1="0" y1="0.5" x2="1" y2="0.5" xlink:href="#a"/><linearGradient id="g" x1="10.639" y1="-40.418" x2="11.374" y2="-40.937" xlink:href="#a"/><linearGradient id="i" y1="0.5" x2="1" y2="0.5" gradientUnits="objectBoundingBox"><stop offset="0" stop-color="#18130d"/><stop offset="1" stop-color="#888"/></linearGradient><clipPath id="j"><path d="M868.513,1000.2l23.606,24.445-29.471,15L839.043,1015.2Z" transform="translate(-839.043 -1000.2)" fill="none"/></clipPath><linearGradient id="l" y1="0.5" x2="1" y2="0.5" gradientUnits="objectBoundingBox"><stop offset="0" stop-color="#5b5450"/><stop offset="1" stop-color="#888"/></linearGradient></defs><g transform="translate(34.909 50.374)" opacity="0.528"><path d="M204.871,162.774,512.042-65.374,345.17,354.548Z" transform="translate(-239.78 15)" opacity="0.132" fill="url(#a)"/><path d="M471.283,353.909l-343.876,24.9L318.082,623.363Z" transform="translate(-41.861 -164.804)" opacity="0.25" fill="url(#b)"/><path d="M901.08,11.909,807.2,288.181,620.392,96.46Z" transform="translate(-199.154 -8.114)" opacity="0.71" fill="url(#c)"/><path d="M63.308,276.469l370.508,48.083L-33.193,142.658Z" transform="translate(86.347 -95.503)" opacity="0.086" fill="url(#d)"/><path d="M858.634,364.241l251.285,295.823,47.235-152.75Z" transform="translate(-250.585 -84.175)" opacity="0.71" fill="url(#e)"/><path d="M302.758,329.754l205.769-61.217,24.933-142.713Z" transform="translate(-204.477 225.806)" opacity="0.71" fill="url(#f)"/><path d="M827.356,403.98,958.93,179.338,561.648,339.192Z" transform="translate(-66.5 49.754)" opacity="0.078" fill="url(#g)"/><path d="M32.751,209.811,206.523,49.827,0,0Z" transform="translate(905.388 12.564) rotate(47)" opacity="0.068" fill="url(#g)"/></g><g transform="translate(-2357.14 12695.024)" opacity="0.155"><g transform="translate(3071.684 -12442.563)"><g style="isolation:isolate"><g transform="translate(0 23.905)"><path d="M868.513,1000.2l23.606,24.445-29.471,15L839.043,1015.2Z" transform="translate(-839.043 -1000.2)" fill="url(#i)"/></g><path d="M873.619,954.646l-5.106,23.905-29.471,15,5.107-23.906Z" transform="translate(-839.043 -954.646)" fill="url(#i)"/><g transform="translate(29.471)"><path d="M923.914,979.09,918.808,1003,895.2,978.551l5.106-23.905Z" transform="translate(-895.202 -954.646)" fill="url(#l)"/></g></g></g><circle cx="2.622" cy="2.622" r="2.622" transform="translate(3103.238 -12515.023)" fill="#444242"/><circle cx="2.622" cy="2.622" r="2.622" transform="translate(3099.304 -12472.193)" fill="#444242"/><circle cx="2.304" cy="2.304" r="2.304" transform="translate(3128.904 -12454.394)" fill="#444242"/></g><g transform="translate(-3028.14 12843.024)" opacity="0.155"><g transform="translate(3071.684 -12442.563)"><g style="isolation:isolate"><g transform="translate(0 23.905)"><path d="M868.513,1000.2l23.606,24.445-29.471,15L839.043,1015.2Z" transform="translate(-839.043 -1000.2)" fill="url(#i)"/></g><path d="M873.619,954.646l-5.106,23.905-29.471,15,5.107-23.906Z" transform="translate(-839.043 -954.646)" fill="url(#i)"/><g transform="translate(29.471)"><path d="M923.914,979.09,918.808,1003,895.2,978.551l5.106-23.905Z" transform="translate(-895.202 -954.646)" fill="url(#l)"/></g></g></g><circle cx="2.622" cy="2.622" r="2.622" transform="translate(3103.238 -12515.023)" fill="#444242"/><circle cx="2.622" cy="2.622" r="2.622" transform="translate(3099.304 -12472.193)" fill="#444242"/><circle cx="2.304" cy="2.304" r="2.304" transform="translate(3128.904 -12454.394)" fill="#444242"/></g></svg>